# xmcd
#
# Track frame offsets:
#	150
#	14359
#	29079
#	46074
#	64379
#	82580
#	97854
#	112452
#	128404
#	140975
#	155368
#
# Disc length: 2254 seconds
#
# Revision: 1
# Processed by: cddbd v1.5.2PL0 Copyright (c) Steve Scherf et al.
# Submitted via: audiograbber 1.83.01
#
DISCID=8f08cc0b
DTITLE=Chad Brownlee - The Fighters
DYEAR=2014
DGENRE=Country
TTITLE0=When The Lights Go Down
TTITLE1=Fallin' Over You
TTITLE2=The Fighters
TTITLE3=Matches
TTITLE4=Stay
TTITLE5=Left
TTITLE6=Hello
TTITLE7=Let 'em Have It
TTITLE8=Just Because
TTITLE9=Where The Party At
TTITLE10=We Don't Walk This Road Alone
EXTD=
EXTT0=
EXTT1=
EXTT2=
EXTT3=
EXTT4=
EXTT5=
EXTT6=
EXTT7=
EXTT8=
EXTT9=
EXTT10=
PLAYORDER=
